# xmcd
# Copyright (C) 1995-1998 Ti Kan
#
# Track frame offsets:
#       150
#       21578
#       41077
#       59344
#       85818
#       102222
#       119148
#       140424
#       168554
#       187633
#       208356
#       221980
#       257858
#       261637
#
# Disc length: 3767 seconds
#
# Revision: 0
# Processed by: cddbd v1.5.1PL2 Copyright (c) Steve Scherf et al.
# Submitted via: CD-Transfer v1.0
#
DISCID=e30eb50e
DTITLE=Il Suonatore Jones - A Faber
DYEAR=06
DGENRE=
TTITLE0=Sally
TTITLE1=Il Pescatore
TTITLE2=Geordie
TTITLE3=Avventura A Durango
TTITLE4=Bocca Di Rosa
TTITLE5=La Ballata Dei Miché
TTITLE6=Se Ti Tagliassero A Pezzetti
TTITLE7=Carlo Martello Ritorna Dalla Batrtagia Di Poitiers
TTITLE8=La Guerra Di Piero
TTITLE9=Dolcenera
TTITLE10=Via Del Campo
TTITLE11=Il Testamento Di Tito
TTITLE12=Ilsuonatore Jones
TTITLE13=La Cittá Vecchia
EXTD=
EXTT0=
EXTT1=
EXTT2=
EXTT3=
EXTT4=
EXTT5=
EXTT6=
EXTT7=
EXTT8=
EXTT9=
EXTT10=
EXTT11=
EXTT12=
EXTT13=
PLAYORDER=
